# xmcd CD database generated by RipIT
#
# Track frame offsets:
# 150
# 21617
# 43849
# 64177
# 86893
# 107124
# 121412
# 143860
# 162001
# 178051
# 193725
# 203834
# 221470
# 232909
#
# Disc length: 3378 seconds
#
# Revision: 0
# Processed by: cddbd v1.5.2PL0 Copyright (c) Steve Scherf et al.
# Submitted via: RipIT 3.8.0 www.suwald.com/ripit/ripit.html on 2010-09-10 at 03:11
#
DISCID=cf0d300e
DTITLE=The Staple Singers - Stax Profile
DYEAR=1900
DGENRE=
TTITLE0=I'll Take You There
TTITLE1=Respect Yourself
TTITLE2=If You're Ready (Come Go With Me)
TTITLE3=Be What You Are
TTITLE4=Are You Sure?
TTITLE5=Heavy Makes You Happy (Sha-Na-Boom-Boom)
TTITLE6=Oh Le De Da
TTITLE7=Touch A Hand, Make A Friend
TTITLE8=You've Got To Earn It
TTITLE9=Everyday People
TTITLE10=My Main Man
TTITLE11=City In The Sky
TTITLE12=Long Walk To D.C.
TTITLE13=The Weight
EXTD=
EXTT0=
EXTT1=
EXTT2=
EXTT3=
EXTT4=
EXTT5=
EXTT6=
EXTT7=
EXTT8=
EXTT9=
EXTT10=
EXTT11=
EXTT12=
EXTT13=
PLAYORDER=
